<!-- icon666.com - MILLIONS vector ICONS FREE --><svg version="1.1" id="Capa_1" xmlns="http://www.w3.org/2000/svg" xmlns:xlink="http://www.w3.org/1999/xlink" x="0px" y="0px" viewBox="0 0 511.999 511.999" style="enable-background:new 0 0 511.999 511.999;" xml:space="preserve"><g><g><path d="M256,223.202c-13.045,0-23.658,10.613-23.658,23.658c0,13.045,10.613,23.658,23.658,23.658s23.658-10.613,23.658-23.658 C279.658,233.815,269.045,223.202,256,223.202z M256,255.521c-4.775,0-8.661-3.885-8.661-8.661s3.885-8.661,8.661-8.661 s8.661,3.885,8.661,8.661S260.775,255.521,256,255.521z"></path></g></g><g><g><path d="M256,276.37c-13.045,0-23.658,10.613-23.658,23.658s10.613,23.658,23.658,23.658s23.658-10.613,23.658-23.658 C279.658,286.983,269.045,276.37,256,276.37z M256,308.689c-4.775,0-8.661-3.885-8.661-8.661s3.885-8.661,8.661-8.661 s8.661,3.885,8.661,8.661S260.775,308.689,256,308.689z"></path></g></g><g><g><path d="M340.878,384.813c-4.141,0-7.499,3.357-7.499,7.499v40.537l-11.145,12.203l-12.727-13.935 c-1.421-1.556-3.43-2.442-5.538-2.442c-2.107,0-4.116,0.887-5.537,2.442l-12.724,13.934l-12.722-13.933 c-0.018-0.02-0.038-0.036-0.057-0.056v-38.927c0-9.336-7.595-16.93-16.929-16.93c-9.335,0-16.929,7.595-16.929,16.93v41.061 l-11.365,12.048l-13.409-14.215c-1.417-1.502-3.391-2.354-5.455-2.354c-2.065,0-4.038,0.852-5.455,2.354l-13.405,14.213 l-11.361-12.046v-69.382c0-1.173,0.076-2.366,0.231-3.645c0.037-0.3,0.055-0.603,0.055-0.905v-50.121 c0-2.542-1.288-4.91-3.419-6.292c-2.133-1.382-4.82-1.591-7.14-0.553l-11.014,4.925c-0.421-0.27-0.875-0.501-1.36-0.688 l-16.697-6.426l8.671-15.65c1.051-1.898,1.229-4.158,0.488-6.197c-0.741-2.04-2.33-3.656-4.354-4.436l-16.694-6.424l8.67-15.646 c0.272-0.491,0.478-1.001,0.631-1.519l66.597-29.782c0.011-0.004,0.022-0.01,0.033-0.015c2.965-1.324,4.919-4.156,5.103-7.392 c0.183-3.23-1.439-6.261-4.231-7.909c-31.035-18.31-50.315-52.037-50.315-88.018c0-8.634,1.078-17.206,3.203-25.482 c1.03-4.011-1.386-8.099-5.397-9.129c-4.012-1.03-8.099,1.386-9.129,5.397c-2.439,9.494-3.674,19.322-3.674,29.214 c0,37.27,18.034,72.429,47.745,94.355l-83.439,37.313c-22.763,10.18-33,36.981-22.821,59.744c0.044,0.099,0.09,0.196,0.139,0.292 c11.082,22.165,38.503,31.967,61.123,21.851l22.289-9.966v38.118c-0.19,1.699-0.286,3.374-0.286,4.985v102.964 c0,24.935,20.287,45.222,45.222,45.222c24.935,0,45.222-20.287,45.222-45.222v-74.641c0-1.066,0.867-1.933,1.932-1.933 s1.932,0.867,1.932,1.933v74.641c0,24.935,20.287,45.222,45.222,45.222c24.935,0,45.222-20.287,45.222-45.222v-74.466 C348.376,388.171,345.019,384.813,340.878,384.813z M135.498,316.986c-15.342,6.863-33.928,0.257-41.514-14.722 c-6.693-15.182,0.154-33,15.319-39.782l4.866-2.176l-4.08,7.364c-1.052,1.898-1.23,4.158-0.488,6.197 c0.741,2.04,2.33,3.657,4.354,4.436l16.695,6.424l-8.671,15.65c-1.051,1.898-1.229,4.158-0.488,6.197 c0.741,2.039,2.33,3.656,4.353,4.436l12.37,4.76L135.498,316.986z M239.072,466.778h-0.002c0,16.665-13.559,30.224-30.224,30.224 c-16.665,0-30.224-13.559-30.224-30.224v-11.722l5.906,6.262c1.417,1.502,3.391,2.354,5.455,2.354 c2.065,0,4.038-0.852,5.455-2.354l13.406-14.214l13.408,14.214c1.417,1.502,3.391,2.354,5.455,2.354 c2.065,0,4.038-0.852,5.455-2.354l5.91-6.265V466.778z M333.38,466.778L333.38,466.778c-0.001,16.665-13.56,30.224-30.225,30.224 c-16.665,0-30.224-13.559-30.224-30.224v-13.479l7.241,7.93c1.421,1.556,3.43,2.443,5.538,2.443c2.107,0,4.116-0.887,5.537-2.442 l12.725-13.934l12.726,13.935c1.421,1.556,3.43,2.442,5.537,2.442c2.107,0,4.116-0.886,5.537-2.442l5.608-6.141V466.778z"></path></g></g><g><g><path d="M408.818,248.79l-83.438-37.313c12.769-9.409,23.581-21.366,31.644-35.074c10.387-17.663,15.953-37.883,16.093-58.473 C373.551,53.803,321.759,0.904,257.664,0.012c-34.156-0.479-66.719,13.913-89.364,39.475c-2.747,3.1-2.46,7.84,0.641,10.585 c3.099,2.747,7.84,2.459,10.585-0.64c19.748-22.292,48.171-34.8,77.93-34.425c55.884,0.779,101.041,46.905,100.662,102.822 c-0.242,35.685-19.519,69.139-50.308,87.307c-2.793,1.648-4.414,4.68-4.23,7.912c0.183,3.213,2.112,6.026,5.041,7.362 c0.027,0.013,0.054,0.025,0.081,0.037l74.64,33.379l-9.477,3.645c-2.025,0.779-3.613,2.397-4.354,4.436 c-0.742,2.04-0.563,4.299,0.488,6.197l8.671,15.648l-16.696,6.426c-2.025,0.779-3.612,2.397-4.353,4.436 c-0.742,2.039-0.563,4.299,0.488,6.197l5.854,10.565l-20.309-9.082c-2.321-1.038-5.007-0.829-7.14,0.553 c-2.133,1.383-3.419,3.75-3.419,6.292v32.511c0,4.141,3.357,7.499,7.499,7.499s7.499-3.357,7.499-7.499V320.71l22.288,9.966 c6.053,2.707,12.446,3.987,18.781,3.987c17.34-0.001,34.226-9.604,42.342-25.837c0.048-0.096,0.095-0.194,0.139-0.292 C441.819,285.771,431.582,258.971,408.818,248.79z M418.015,302.264c-6.233,12.306-19.887,18.952-33.07,17.13 c-0.119-0.909-0.4-1.812-0.872-2.663l-8.671-15.65l16.697-6.426c2.025-0.779,3.612-2.397,4.354-4.436 c0.741-2.039,0.563-4.299-0.489-6.197l-8.67-15.647l15.363-5.91l0.038,0.017C417.86,269.264,424.708,287.082,418.015,302.264z"></path></g></g><g><g><circle cx="211.007" cy="108.103" r="12.94"></circle></g></g><g><g><circle cx="300.993" cy="108.103" r="12.94"></circle></g></g><g><g><path d="M294.978,141.24c-3.669-1.917-8.201-0.495-10.118,3.175c-5.637,10.792-16.696,17.497-28.861,17.497 c-12.165,0-23.223-6.705-28.861-17.498c-1.917-3.67-6.447-5.093-10.118-3.176c-3.67,1.917-5.092,6.447-3.175,10.118 c8.232,15.762,24.384,25.553,42.154,25.553c17.769,0,33.922-9.79,42.154-25.552C300.07,147.688,298.649,143.158,294.978,141.24z"></path></g></g></svg>